<?xml version="1.0" encoding="UTF-8" standalone="no"?>
<svg
   xmlns:dc="http://purl.org/dc/elements/1.1/"
   xmlns:cc="http://creativecommons.org/ns#"
   xmlns:rdf="http://www.w3.org/1999/02/22-rdf-syntax-ns#"
   xmlns:svg="http://www.w3.org/2000/svg"
   xmlns="http://www.w3.org/2000/svg"
   xmlns:sodipodi="http://sodipodi.sourceforge.net/DTD/sodipodi-0.dtd"
   xmlns:inkscape="http://www.inkscape.org/namespaces/inkscape"
   version="1.1"
   id="Capa_1"
   x="0px"
   y="0px"
   viewBox="0 0 489.03763 400.125"
   xml:space="preserve"
   sodipodi:docname="money.svg"
   width="489.03763"
   height="400.125"
   inkscape:version="1.0.1 (c497b03c, 2020-09-10)"><metadata
   id="metadata1487"><rdf:RDF><cc:Work
       rdf:about=""><dc:format>image/svg+xml</dc:format><dc:type
         rdf:resource="http://purl.org/dc/dcmitype/StillImage" /><dc:title></dc:title></cc:Work></rdf:RDF></metadata><defs
   id="defs1485" /><sodipodi:namedview
   pagecolor="#ffffff"
   bordercolor="#666666"
   borderopacity="1"
   objecttolerance="10"
   gridtolerance="10"
   guidetolerance="10"
   inkscape:pageopacity="0"
   inkscape:pageshadow="2"
   inkscape:window-width="1572"
   inkscape:window-height="865"
   id="namedview1483"
   showgrid="false"
   inkscape:pagecheckerboard="true"
   fit-margin-top="0"
   fit-margin-left="0"
   fit-margin-right="0"
   fit-margin-bottom="0"
   inkscape:zoom="1.2526046"
   inkscape:cx="240.48787"
   inkscape:cy="216.84841"
   inkscape:window-x="0"
   inkscape:window-y="25"
   inkscape:window-maximized="0"
   inkscape:current-layer="g1450" />
<g
   id="g1450"
   transform="translate(0,-44.456)">
	<path
   d="m 302.7,152.181 c -32.3,-18.6 -84.5,-18.7 -116.6,0 -32.1,18.6 -31.9,48.9 0.4,67.5 32.3,18.6 84.5,18.6 116.5,0 32.2,-18.7 32,-48.9 -0.3,-67.5 z m -14.8,29.3 c -2.8,0.9 -5.5,1.8 -8.4,2.6 -1.7,0.5 -2.7,0.6 -3.5,0.2 -0.4,-0.2 -0.8,-0.7 -1.1,-1.3 -1.9,-3 -4.7,-5.6 -8.6,-7.8 -0.4,-0.3 -0.9,-0.5 -1.4,-0.8 -1.2,-0.6 -2.5,-1.2 -4,-1.5 -5.4,-1.2 -10.1,0.8 -9.4,4.1 0.3,1.7 1.2,3.3 2.3,4.9 1.9,2.7 4,5.4 5.4,8.2 4.5,9 -5.3,17.8 -20.9,18.7 -5.7,0.3 -11,-0.4 -16,-2 -2.2,-0.7 -3.8,-0.7 -5.5,0.4 -1.6,1 -3.4,2 -5.1,3 -1.5,0.9 -3.1,0.9 -4.7,0 -1.1,-0.6 -2.2,-1.2 -3.3,-1.8 -0.8,-0.4 -1.5,-0.9 -2.3,-1.4 -1.6,-0.9 -1.4,-1.9 0.2,-2.9 1.2,-0.7 2.5,-1.5 3.7,-2.2 2.8,-1.6 2.8,-1.8 0.5,-3.6 -2.9,-2.3 -5.5,-4.7 -7.1,-7.4 -1.3,-2.1 -0.9,-2.6 2.3,-3.7 2.5,-0.8 4.9,-1.6 7.4,-2.4 1.8,-0.6 2.8,-0.7 3.6,-0.3 0.4,0.3 0.8,0.7 1.1,1.4 1.7,3 4.3,5.8 7.7,8.3 0.6,0.4 1.2,0.8 1.8,1.2 1.8,1.1 3.9,1.9 6.4,2.5 6.1,1.4 11.8,-1.1 11.1,-4.9 -0.2,-1.3 -0.9,-2.5 -1.7,-3.8 -2.1,-3.1 -4.8,-6.1 -6.3,-9.4 -2.3,-5.3 -1.3,-10.2 6.2,-14 8.4,-4.3 17.8,-4.6 27.7,-1.9 4.1,1.1 4.1,1.1 7.2,-0.7 1.1,-0.6 2.1,-1.2 3.2,-1.8 2.4,-1.3 3.2,-1.3 5.6,0 0.3,0.1 0.5,0.3 0.7,0.4 0.5,0.3 1,0.6 1.4,0.9 5,2.9 5,2.9 0.1,5.8 -3.5,2 -3.5,2.1 -0.6,4.4 2.3,1.8 4.1,3.8 5.5,5.8 1.1,1.4 0.7,2.2 -1.2,2.8 z m 198.1,34 -293.4,-169.3 c -4,-2.3 -10.6,-2.3 -14.6,0 L 3.2,147.781 c -4,2.3 -4,6.1 0,8.5 l 293.3,169.3 c 4.1,2.4 10.6,2.3 14.6,0 L 486,223.981 c 4,-2.3 4.1,-6.1 0,-8.5 z m -152.9,71 c -1.6,-1.6 -3.6,-3 -5.9,-4.3 -14.9,-8.6 -39,-8.6 -53.9,0 -1.1,0.7 -2.1,1.3 -3.1,2.1 L 72.6,170.081 c 1.9,-0.8 3.7,-1.6 5.4,-2.6 14.8,-8.6 14.7,-22.6 -0.2,-31.2 -1.6,-0.9 -3.4,-1.8 -5.2,-2.5 l 81.5,-47.3 c 1.3,1 2.7,2.1 4.3,3 14.9,8.6 39.1,8.6 53.9,0 1.7,-1 3.2,-2 4.4,-3.1 l 198.2,114.5 c -2.6,0.9 -5.1,2 -7.3,3.3 -14.8,8.6 -14.7,22.6 0.2,31.2 2.3,1.3 4.9,2.4 7.6,3.4 z m 23.9,-43.2 -12.9,7.5 c -2,1.1 -5.2,1.2 -7.2,0 l -22.7,-13.1 c -2,-1.2 -2,-3 0,-4.2 l 12.9,-7.5 c 2,-1.1 5.2,-1.2 7.2,0 l 22.7,13.1 c 2,1.2 2,3.1 0,4.2 z m -182,-105.1 -12.9,7.5 c -2,1.1 -5.2,1.2 -7.2,0 l -22.7,-13.1 c -2,-1.2 -2,-3 0,-4.2 l 12.9,-7.5 c 2,-1.1 5.2,-1.2 7.2,0 l 22.7,13.1 c 2,1.2 2,3.1 0,4.2 z m 291.2,129.4 22.8,13.2 -183.3,106.5 -6,-3.4 -16.9,-9.7 -282.8,-163.6 22.6,-13.1 282.9,163.4 z m -0.4,57.7 22.8,13.2 -182.6,106.1 -5.9,-3.4 -16.9,-9.7 -283.2,-163.9 22.6,-13.1 283.3,163.8 z"
   id="path1448"
   style="fill:#ffffff;fill-opacity:1" />
<path
   style="fill:#ffffff;fill-opacity:1;stroke-width:0.666406"
   d="M 299.7437,326.53368 C 299.0118,326.34925 231.67999,287.68511 150.11746,240.61337 47.437252,181.35409 1.6112092,154.56788 1.1368498,153.53132 0.66657156,152.50367 0.66727691,151.56485 1.1390998,150.53721 1.6092147,149.51328 29.134879,133.16405 88.234731,98.805636 135.75929,71.176652 176.26013,47.74774 178.23661,46.741387 c 4.10421,-2.089719 8.71206,-2.410652 12.41248,-0.86452 2.9881,1.24851 292.70509,168.365903 295.56113,170.488463 3.12436,2.32198 3.00071,4.97066 -0.33268,7.12571 -7.40092,4.78474 -176.33375,102.44161 -178.07227,102.94022 -2.1695,0.6222 -5.81503,0.66852 -8.06157,0.10242 z m 76.18347,-64.35873 c 21.40788,-12.38276 39.16605,-22.72656 39.46259,-22.98621 0.29653,-0.25965 -1.70527,-1.53797 -4.44845,-2.8407 -11.32462,-5.37804 -16.35456,-14.30802 -12.58049,-22.33495 1.75399,-3.73049 6.74237,-8.16672 12.14484,-10.80054 l 4.88801,-2.38301 -3.931,-2.3616 C 403.83144,193.88339 218.1961,86.771594 217.25788,86.411566 c -0.52331,-0.200813 -1.95459,0.4 -3.18063,1.335139 -8.30721,6.336223 -26.29763,9.39315 -39.92987,6.784872 -6.1946,-1.185223 -14.41807,-4.342386 -17.56739,-6.744493 -1.79278,-1.367424 -2.67012,-1.665657 -3.47231,-1.180354 -0.59038,0.357157 -18.58896,10.781344 -39.99685,23.16486 -21.407889,12.38351 -39.336933,22.89163 -39.842319,23.35136 -0.760737,0.69201 -0.316112,1.14132 2.583444,2.61064 4.524201,2.29258 9.844521,7.26375 11.392789,10.64513 3.534394,7.71902 -0.99101,16.49836 -11.046264,21.42992 -2.020964,0.99117 -3.674478,2.00956 -3.674478,2.26309 0,0.25351 17.889808,10.79157 39.755128,23.41791 21.86532,12.62633 66.22799,38.25559 98.58371,56.9539 32.35572,18.69831 59.10678,33.99693 59.44681,33.99693 0.34003,0 1.48976,-0.62058 2.55495,-1.37906 2.80274,-1.99573 9.22232,-4.4745 14.75559,-5.69754 7.132,-1.57641 19.99939,-1.40402 26.76138,0.35852 5.95389,1.55192 15.37965,5.9276 17.27122,8.01776 1.21093,1.33806 1.28328,1.34155 3.29453,0.15851 1.13103,-0.66527 19.57196,-11.34094 40.97985,-23.72371 z"
   id="path2052" /><path
   style="fill:#ffffff;fill-opacity:1;stroke-width:0.666406"
   d="m 229.54845,232.51796 c -24.81607,-3.00755 -46.94798,-12.64893 -58.09613,-25.3086 -4.04783,-4.59666 -7.58586,-11.72212 -8.54297,-17.20522 -2.54436,-14.57622 8.45219,-30.12234 28.38102,-40.12299 21.63143,-10.85504 53.22696,-14.14218 80.9769,-8.42468 18.60156,3.83261 34.63718,11.8593 44.24459,22.14682 10.50406,11.24765 12.79836,23.26479 6.7974,35.60363 -2.84256,5.8447 -12.16887,15.1208 -19.69044,19.58442 -10.09508,5.99086 -22.76027,10.36549 -37.14097,12.82872 -7.11666,1.219 -29.741,1.76908 -36.9294,0.8979 z m -14.77275,-23.68152 4.31783,-2.41467 4.41511,1.06565 c 14.10871,3.40532 27.48934,1.08571 33.90847,-5.87822 4.61122,-5.00259 4.18384,-9.77627 -1.57802,-17.62549 -4.83668,-6.58888 -4.99335,-9.23261 -0.6324,-10.67185 4.8079,-1.58675 12.83144,2.11112 18.00194,8.29669 2.94148,3.51895 3.69483,3.63659 10.49475,1.63883 6.39015,-1.87738 6.97232,-2.50574 5.11129,-5.51694 -0.80153,-1.2969 -2.63759,-3.29279 -4.08014,-4.43531 -1.44255,-1.14252 -2.62282,-2.32311 -2.62282,-2.62354 0,-0.30042 1.34735,-1.33582 2.99411,-2.30089 1.64676,-0.96506 2.99411,-2.19061 2.99411,-2.72343 0,-1.06371 -5.3679,-4.71578 -7.9404,-5.40227 -1.15429,-0.30802 -2.80477,0.20748 -5.74563,1.79456 l -4.12614,2.22673 -5.89812,-1.13025 c -10.93514,-2.09548 -18.73666,-1.36671 -26.22482,2.44976 -5.21122,2.65599 -7.28566,5.37081 -7.28566,9.53474 0,3.37496 0.91289,5.36338 5.46942,11.91327 4.00687,5.75976 4.1215,7.92209 0.5188,9.78658 -6.28873,3.25459 -16.46426,-1.4566 -23.37962,-10.82457 l -1.69817,-2.30044 -3.28278,0.75776 c -1.80553,0.41677 -4.99565,1.39862 -7.08916,2.1819 -5.09521,1.90637 -4.99519,2.93883 0.85113,8.78514 2.56162,2.56163 4.6575,4.73148 4.6575,4.8219 0,0.0904 -1.49705,1.09501 -3.32679,2.23244 -1.9964,1.24103 -3.32679,2.54755 -3.32679,3.26709 0,1.31646 6.73786,5.46713 8.91839,5.49393 0.69673,0.009 3.2098,-1.07104 5.58461,-2.3991 z"
   id="path2054" /><path
   style="fill:#ffffff;fill-opacity:1;stroke-width:0.666406"
   d="m 143.71761,138.81142 c -6.76984,-3.93901 -12.39948,-7.63272 -12.51031,-8.20824 -0.28483,-1.47901 14.6513,-10.10688 17.49652,-10.10688 1.45209,0 5.90741,2.20095 14.51538,7.17068 6.83111,3.94387 12.62093,7.49547 12.86627,7.89244 0.60605,0.9806 -1.18116,2.32186 -8.97107,6.73254 -4.54368,2.57265 -7.33169,3.74263 -8.85912,3.71769 -1.58674,-0.0259 -5.775,-2.09969 -14.53767,-7.19823 z"
   id="path2056" /><path
   style="fill:#ffffff;fill-opacity:1;stroke-width:0.666406"
   d="m 326.69069,244.48357 c -12.69059,-7.35056 -13.66519,-8.05221 -13.12826,-9.45143 0.19847,-0.51722 3.60779,-2.8457 7.57626,-5.17439 5.13718,-3.01449 7.88613,-4.23486 9.54414,-4.23702 1.75963,-0.002 5.37764,1.77028 14.80422,7.25303 7.86421,4.57403 12.47545,7.6446 12.47545,8.30724 0,1.55718 -13.6607,9.42202 -16.96662,9.76815 -2.39161,0.25041 -3.8419,-0.40509 -14.30519,-6.46558 z"
   id="path2058" /><path
   style="fill:#ffffff;fill-opacity:1;stroke-width:0.666406"
   d="m 298.05526,382.44034 c -4.19461,-2.40301 -67.95789,-39.256 -141.69617,-81.89555 C 82.620807,257.90524 17.580827,220.29585 11.825799,216.96838 6.0707709,213.64091 1.3590802,210.76872 1.3553755,210.58575 c -0.0037,-0.18297 4.7665237,-3.10661 10.6005075,-6.49696 l 10.607244,-6.16428 100.997563,58.32928 c 55.54867,32.08111 119.062,68.76334 141.14075,81.51606 22.07874,12.75272 40.45295,23.18676 40.83157,23.18676 0.37863,0 36.50759,-20.80103 80.2866,-46.22451 43.779,-25.42349 79.84959,-46.27916 80.15686,-46.34593 0.30727,-0.0668 5.43972,2.69052 11.40543,6.12732 l 10.84675,6.24873 -2.4231,1.42662 c -1.64495,0.96848 -166.18838,96.53996 -179.76599,104.41317 -0.19674,0.11409 -3.78967,-1.75866 -7.9843,-4.16167 z"
   id="path2060" /><path
   style="fill:#ffffff;fill-opacity:1;stroke-width:0.666406"
   d="M 303.07048,442.49081 C 301.6067,441.61983 238.73038,405.22689 163.34534,361.61762 87.960303,318.00835 20.544251,279.002 13.531896,274.93685 L 0.78215699,267.54566 11.535822,261.35174 c 6.163601,-3.55013 11.179664,-6.03241 11.751702,-5.81554 0.943945,0.35788 278.256916,160.55186 281.146126,162.40826 1.24224,0.79818 8.46176,-3.25282 81.38747,-45.66793 l 80.02432,-46.54381 11.00335,6.40022 c 9.35608,5.44207 10.81819,6.5031 9.76654,7.08737 -0.68024,0.37794 -41.59938,24.1364 -90.93142,52.7966 -49.33203,28.66019 -89.75252,52.09775 -89.8233,52.08347 -0.0708,-0.0143 -1.32634,-0.73859 -2.79013,-1.60957 z"
   id="path2062" /><path
   style="fill:#ffffff;fill-opacity:1;stroke-width:0.666406"
   d=""
   id="path2064" /><path
   style="fill:#ffffff;fill-opacity:1;stroke-width:0.183344"
   d="m 238.39923,233.38768 c -6.3448,-0.29937 -6.71712,-0.47182 -0.82375,-0.38154 5.51442,0.0845 16.01553,-0.17368 20.85863,-0.51278 1.3142,-0.092 3.13083,-0.2072 4.03695,-0.25597 l 1.64751,-0.0887 -1.64751,0.25409 c -6.17828,0.95288 -16.12502,1.35983 -24.07183,0.98487 z"
   id="path2066" /><path
   style="fill:#ffffff;fill-opacity:1;stroke-width:0.0641488"
   d="M 135.24581,288.77569 C 113.18767,276.0139 108.49675,273.30013 81.637668,257.7625 60.841114,245.73196 59.347562,244.85663 59.327859,244.68722 c -0.01633,-0.14038 8.17e-4,-0.17315 0.07557,-0.14447 0.05318,0.0204 8.954139,5.15901 19.779913,11.41912 28.262628,16.34314 30.515718,17.64585 53.212338,30.7668 11.29005,6.5268 20.55475,11.89217 20.58822,11.92304 0.0355,0.0328 -0.0711,0.0559 -0.25619,0.0554 -0.3044,-6.7e-4 -1.00129,-0.39657 -17.4819,-9.93146 z"
   id="path2068" /><path
   style="fill:#ffffff;fill-opacity:1;stroke-width:0.0641488"
   d="m 117.25302,252.56614 c -39.0989,-22.5812 -40.145784,-23.19071 -39.863558,-23.20934 0.277161,-0.0183 0.459053,0.0787 4.158437,2.21606 2.127729,1.22935 20.051921,11.58101 39.831531,23.00367 19.77961,11.42267 35.9868,20.7905 36.01598,20.8174 0.0292,0.0269 0.0436,0.11945 0.032,0.20567 -0.0197,0.14663 -2.61559,-1.34171 -40.17441,-23.03346 z"
   id="path2070" /><path
   style="fill:#ffffff;fill-opacity:1;stroke-width:0.920921"
   d="M 300.62853,326.18419 C 296.87535,324.77629 60.450409,188.40098 16.522053,162.30506 2.5044779,153.97784 0.54641877,152.51126 1.4640012,151.02657 2.1202244,149.96478 42.953342,125.77411 99.263855,93.087218 182.80288,44.594839 179.89705,46.213066 184.33313,45.713056 c 4.773,-0.537987 -3.88658,-5.249525 95.60725,52.018376 173.74284,100.005078 207.04844,119.452698 207.78012,121.325798 0.43019,1.10133 -0.12777,2.15577 -1.81463,3.42927 -4.49977,3.39713 -158.43001,92.63259 -173.11682,100.35818 -7.39898,3.89203 -9.29763,4.41343 -12.16052,3.33951 z m 65.02471,-57.4279 c 17.58885,-10.20421 36.00113,-20.85861 40.91617,-23.67644 4.91504,-2.81785 8.94824,-5.53712 8.96268,-6.04283 0.0144,-0.50571 -2.24407,-2.10574 -5.01889,-3.55562 -9.26568,-4.84144 -14.19738,-12.57088 -12.33177,-19.32757 1.03287,-3.74078 7.43546,-9.88987 13.22762,-12.70391 2.28451,-1.10991 4.15366,-2.30673 4.15366,-2.65961 0,-0.62175 -46.91507,-27.90769 -145.73654,-84.76077 -26.29694,-15.12892 -48.92086,-28.158835 -50.27537,-28.955363 -2.35498,-1.384857 -2.75735,-1.299642 -9.19473,1.947299 -15.69999,7.918891 -34.10334,7.940135 -50.05599,0.05778 l -6.78248,-3.351287 -28.27621,16.379661 c -42.382728,24.5512 -52.642264,30.70816 -52.642264,31.59176 0,0.44147 1.793102,1.85349 3.984669,3.13783 5.440467,3.18833 10.496121,9.00671 11.231344,12.92579 1.166441,6.21767 -4.330313,13.86039 -13.252847,18.42682 -1.701666,0.8709 -2.736074,1.92182 -2.298684,2.3354 1.418705,1.34147 175.775682,102.27593 192.200282,111.26387 l 5.67139,3.10352 6.28176,-2.86174 c 3.45497,-1.57395 8.10907,-3.34036 10.34246,-3.92535 6.13135,-1.60596 22.03079,-1.34114 28.26352,0.47076 5.7501,1.6716 15.46616,6.2899 16.39515,7.79304 0.31955,0.51702 0.95771,0.94005 1.41815,0.94005 0.46045,0 15.22806,-8.3489 32.81692,-18.55309 z"
   id="path2072" /><path
   style="fill:#ffffff;fill-opacity:1;stroke-width:0.920921"
   d="M 300.62853,326.21084 C 296.22856,324.42766 59.777997,188.01898 16.522053,162.30939 2.5494034,154.00461 0.54788598,152.50887 1.4513378,151.04706 2.3265068,149.63101 78.880412,104.64142 160.68799,57.466064 185.44567,43.18924 184.90102,43.290003 197.84412,50.591886 221.04587,63.681217 421.76385,179.36679 469.3519,207.07778 c 15.43811,8.98977 18.84921,11.39612 18.84921,13.2972 0,1.3908 -18.81473,12.5034 -119.14754,70.37247 -64.61144,37.26602 -64.33307,37.12175 -68.42504,35.46339 z m 70.52448,-60.64931 c 44.0187,-25.51902 44.62579,-25.89072 43.98384,-26.92942 -0.27152,-0.43934 -2.69055,-2.03862 -5.37563,-3.55399 -8.9541,-5.05338 -13.40246,-12.32311 -11.57979,-18.92429 1.03287,-3.74078 7.43546,-9.88987 13.22762,-12.70391 4.62661,-2.24778 4.85447,-2.61069 2.54458,-4.05261 C 408.05736,195.71664 224.14258,89.633184 219.0079,86.951116 c -1.78941,-0.934685 -3.03202,-0.624252 -8.735,2.18219 -15.82699,7.788489 -34.13493,7.771602 -49.95669,-0.04608 l -6.76635,-3.343319 -30.59103,17.718883 c -42.819467,24.80184 -50.359704,29.32976 -50.359704,30.24106 0,0.43901 1.793102,1.84903 3.984669,3.13337 5.440467,3.18833 10.496121,9.00671 11.231344,12.92579 1.135893,6.05483 -4.368868,14.10225 -12.201481,17.83737 -5.490203,2.61809 -13.861886,-2.72998 87.093862,55.63797 76.00438,43.94222 106.47814,61.31261 107.56383,61.31261 0.54734,0 2.96446,-0.99792 5.37136,-2.21759 2.40692,-1.21968 6.75529,-2.90921 9.66305,-3.75452 7.1066,-2.06594 22.61488,-2.06727 29.71726,-0.003 5.7501,1.67159 15.46616,6.2899 16.39515,7.79303 0.31955,0.51703 0.95003,0.94005 1.4011,0.94005 0.45105,0 17.70124,-9.78652 38.33374,-21.74784 z"
   id="path2074" /><path
   style="fill:#ffffff;fill-opacity:1;stroke-width:0.199898"
   d="m 298.20832,326.26222 c -0.95716,-0.35127 -52.08203,-29.84781 -51.95459,-29.97525 0.0518,-0.0518 9.41844,5.24803 20.81484,11.77731 11.3964,6.52928 23.19059,13.26993 26.2093,14.97923 3.01871,1.7093 5.62328,3.19638 5.78794,3.30462 0.42484,0.27929 0.0298,0.23971 -0.85749,-0.0859 z"
   id="path2076" /><path
   style="fill:#ffffff;fill-opacity:1;stroke-width:0.199898"
   d=""
   id="path2078" /></g>
<g
   id="g1452"
   transform="translate(0,-44.456)">
</g>
<g
   id="g1454"
   transform="translate(0,-44.456)">
</g>
<g
   id="g1456"
   transform="translate(0,-44.456)">
</g>
<g
   id="g1458"
   transform="translate(0,-44.456)">
</g>
<g
   id="g1460"
   transform="translate(0,-44.456)">
</g>
<g
   id="g1462"
   transform="translate(0,-44.456)">
</g>
<g
   id="g1464"
   transform="translate(0,-44.456)">
</g>
<g
   id="g1466"
   transform="translate(0,-44.456)">
</g>
<g
   id="g1468"
   transform="translate(0,-44.456)">
</g>
<g
   id="g1470"
   transform="translate(0,-44.456)">
</g>
<g
   id="g1472"
   transform="translate(0,-44.456)">
</g>
<g
   id="g1474"
   transform="translate(0,-44.456)">
</g>
<g
   id="g1476"
   transform="translate(0,-44.456)">
</g>
<g
   id="g1478"
   transform="translate(0,-44.456)">
</g>
<g
   id="g1480"
   transform="translate(0,-44.456)">
</g>
</svg>
